<svg width="48" height="49" viewBox="0 0 48 49" fill="none" xmlns="http://www.w3.org/2000/svg">
<path d="M30 46H18C7.14 46 2.5 41.36 2.5 30.5V18.5C2.5 7.64 7.14 3 18 3H30C40.86 3 45.5 7.64 45.5 18.5V30.5C45.5 41.36 40.86 46 30 46ZM18 6C8.78 6 5.5 9.28 5.5 18.5V30.5C5.5 39.72 8.78 43 18 43H30C39.22 43 42.5 39.72 42.5 30.5V18.5C42.5 9.28 39.22 6 30 6H18Z" fill="#292D32"/>
<path d="M26.5198 33.0598C26.1398 33.0598 25.7598 32.9198 25.4598 32.6198L18.3998 25.5598C17.8198 24.9798 17.8198 24.0198 18.3998 23.4398L25.4598 16.3798C26.0398 15.7998 26.9998 15.7998 27.5798 16.3798C28.1598 16.9598 28.1598 17.9198 27.5798 18.4998L21.5798 24.4998L27.5798 30.4998C28.1598 31.0798 28.1598 32.0398 27.5798 32.6198C27.2998 32.9198 26.9198 33.0598 26.5198 33.0598Z" fill="#292D32"/>
</svg>
