<svg width="48" height="49" viewBox="0 0 48 49" fill="none" xmlns="http://www.w3.org/2000/svg">
<path d="M14.16 32.7C13.44 32.7 12.7201 32.52 12.0601 32.14C10.7201 31.38 9.92004 30.02 9.92004 28.5V21.36C9.92004 20.84 9.58003 19.96 9.16003 19.46L4.12 14.16C3.18 13.24 2.5 11.64 2.5 10.42V7.32001C2.5 4.90001 4.33995 2.97998 6.69995 2.97998H24.5C26.82 2.97998 28.7 4.85999 28.7 7.17999V10.14C28.7 11.7 27.8 13.42 26.92 14.3L21.0601 19.48C20.6001 19.86 20.22 20.78 20.22 21.46V27.26C20.22 28.64 19.38 30.18 18.28 30.84L16.4399 32.04C15.7199 32.48 14.94 32.7 14.16 32.7ZM6.69995 6C6.01995 6 5.5 6.58003 5.5 7.34003V10.44C5.5 10.78 5.84003 11.64 6.28003 12.08L11.4399 17.5C12.1999 18.44 12.9399 19.98 12.9399 21.36V28.5C12.9399 29.1 13.3201 29.4 13.5601 29.52C13.8801 29.7 14.4 29.8 14.84 29.52L16.7 28.32C16.94 28.18 17.22 27.62 17.22 27.28V21.48C17.22 19.9 18 18.16 19.1 17.22L24.86 12.12C25.22 11.76 25.7 10.78 25.7 10.14V7.17999C25.7 6.51999 25.16 5.97998 24.5 5.97998H6.69995V6Z" fill="white"/>
<path d="M30 46H18C7.14 46 2.5 41.36 2.5 30.5V24.5C2.5 23.68 3.18 23 4 23C4.82 23 5.5 23.68 5.5 24.5V30.5C5.5 39.72 8.78 43 18 43H30C39.22 43 42.5 39.72 42.5 30.5V18.5C42.5 12.7 41.14 9.33995 38.08 7.59995C37.76 7.41995 36.7 6.94 33.66 6.46C32.84 6.34 32.28 5.55997 32.42 4.73997C32.56 3.91997 33.34 3.35998 34.14 3.49998C36.76 3.91998 38.5401 4.39996 39.5601 4.97996C43.6001 7.27996 45.5 11.58 45.5 18.5V30.5C45.5 41.36 40.86 46 30 46Z" fill="#292D32"/>
<path d="M36 28H26C25.18 28 24.5 27.32 24.5 26.5C24.5 25.68 25.18 25 26 25H36C36.82 25 37.5 25.68 37.5 26.5C37.5 27.32 36.82 28 36 28Z" fill="white"/>
<path d="M36 36H22C21.18 36 20.5 35.32 20.5 34.5C20.5 33.68 21.18 33 22 33H36C36.82 33 37.5 33.68 37.5 34.5C37.5 35.32 36.82 36 36 36Z" fill="#292D32"/>
</svg>
