<svg width="48" height="49" viewBox="0 0 48 49" fill="none" xmlns="http://www.w3.org/2000/svg">
<path d="M33.7598 41C31.6398 41 29.5797 40.38 27.8197 39.2C26.4397 38.36 25.2397 37.12 24.3597 35.66C23.3197 33.96 22.7598 32 22.7598 30C22.7598 23.94 27.6998 19 33.7598 19C34.5998 19 35.4197 19.1 36.1997 19.28C41.1597 20.38 44.7598 24.88 44.7598 30C44.7598 32.02 44.2198 33.98 43.1798 35.68C41.2198 38.96 37.5998 41 33.7598 41ZM33.7598 22C29.3398 22 25.7598 25.58 25.7598 30C25.7598 31.46 26.1598 32.88 26.9198 34.12C27.5598 35.18 28.4198 36.06 29.4198 36.68C30.7398 37.56 32.2198 38 33.7598 38C36.5598 38 39.1798 36.52 40.6198 34.12C41.3798 32.88 41.7598 31.46 41.7598 30C41.7598 26.28 39.1398 23 35.5198 22.2C34.9398 22.06 34.3598 22 33.7598 22Z" fill="#292D32"/>
<path d="M32.3995 33.8402C32.0195 33.8402 31.6394 33.7002 31.3394 33.4002L28.9995 31.0602C28.4195 30.4802 28.4195 29.5202 28.9995 28.9402C29.5795 28.3602 30.5394 28.3602 31.1194 28.9402L32.4394 30.2602L36.4594 26.5602C37.0794 26.0002 38.0194 26.0402 38.5794 26.6402C39.1394 27.2402 39.0995 28.2002 38.4995 28.7602L33.4195 33.4402C33.1395 33.7002 32.7595 33.8402 32.3995 33.8402Z" fill="#292D32"/>
<path d="M21.8596 46C20.8996 46 19.9396 45.76 19.0796 45.28C17.2996 44.28 16.2396 42.48 16.2396 40.46V29.76C16.2396 28.74 15.5796 27.24 14.9396 26.46L7.3396 18.48C6.0796 17.18 5.09961 15 5.09961 13.4V8.73999C5.09961 5.51999 7.53965 3 10.6396 3H37.3196C40.3796 3 42.8596 5.47998 42.8596 8.53998V12.98C42.8596 15.08 41.6197 17.44 40.3997 18.68L36.7997 21.86C36.4397 22.18 35.9396 22.3 35.4596 22.2C34.9196 22.06 34.3396 22 33.7396 22C29.3196 22 25.7396 25.58 25.7396 30C25.7396 31.46 26.1397 32.88 26.8997 34.12C27.5397 35.18 28.3997 36.06 29.3997 36.68C29.8397 36.96 30.1196 37.44 30.1196 37.96V38.64C30.1196 40.22 29.1597 42.44 27.5597 43.38L24.7997 45.16C23.9197 45.72 22.8796 46 21.8596 46ZM10.6597 6C9.23967 6 8.11963 7.19999 8.11963 8.73999V13.4C8.11963 14.12 8.71965 15.58 9.51965 16.38L17.2196 24.48C18.2396 25.74 19.2596 27.86 19.2596 29.76V40.46C19.2596 41.78 20.1797 42.44 20.5597 42.66C21.4197 43.14 22.4396 43.12 23.2196 42.64L26.0197 40.84C26.5597 40.52 27.0996 39.5 27.1396 38.78C26.0396 37.96 25.0796 36.9 24.3596 35.7C23.3196 34 22.7596 32.04 22.7596 30.04C22.7596 23.98 27.6996 19.04 33.7596 19.04C34.3196 19.04 34.8797 19.08 35.3997 19.16L38.3596 16.54C39.0396 15.84 39.8796 14.18 39.8796 13V8.56C39.8796 7.16 38.7396 6.02002 37.3396 6.02002H10.6597V6Z" fill="#292D32"/>
</svg>
