<svg width="32" height="32" viewBox="0 0 32 32" fill="none" xmlns="http://www.w3.org/2000/svg">
<path d="M16.0003 30.3334C8.09366 30.3334 1.66699 23.9067 1.66699 16.0001C1.66699 8.09342 8.09366 1.66675 16.0003 1.66675C23.907 1.66675 30.3337 8.09342 30.3337 16.0001C30.3337 23.9067 23.907 30.3334 16.0003 30.3334ZM16.0003 3.66675C9.20033 3.66675 3.66699 9.20008 3.66699 16.0001C3.66699 22.8001 9.20033 28.3334 16.0003 28.3334C22.8003 28.3334 28.3337 22.8001 28.3337 16.0001C28.3337 9.20008 22.8003 3.66675 16.0003 3.66675Z" fill="black"/>
<path d="M16.0002 20.0134C15.7469 20.0134 15.4935 19.9201 15.2935 19.7201L10.5869 15.0134C10.2002 14.6267 10.2002 13.9867 10.5869 13.6001C10.9735 13.2134 11.6135 13.2134 12.0002 13.6001L16.0002 17.6001L20.0002 13.6001C20.3869 13.2134 21.0269 13.2134 21.4135 13.6001C21.8002 13.9867 21.8002 14.6267 21.4135 15.0134L16.7069 19.7201C16.5069 19.9201 16.2535 20.0134 16.0002 20.0134Z" fill="black"/>
</svg>
