<svg width="40" height="40" viewBox="0 0 40 40" fill="none" xmlns="http://www.w3.org/2000/svg">
<path d="M26.3996 21.8164V27.3836C26.3996 27.494 26.3497 27.6 26.2608 27.678C26.1719 27.7561 26.0513 27.8 25.9255 27.8H14.0737C13.948 27.8 13.8274 27.7561 13.7385 27.678C13.6496 27.6 13.5996 27.494 13.5996 27.3836V21.8164" stroke="#181818" stroke-linecap="round" stroke-linejoin="round"/>
<path d="M23.6 13.8L24 18.2V19.4C24 20.5046 24.8954 21.4 26 21.4C27.1046 21.4 28 20.5046 28 19.4V19.336C28 18.5836 27.8787 17.8361 27.6408 17.1224L26.4 13.4H13.6L12.1413 17.7762C12.0477 18.0569 12 18.3509 12 18.6468V19.4C12 20.5046 12.8954 21.4 14 21.4V21.4C15.1046 21.4 16 20.5046 16 19.4V18.2L16.4 13.8" stroke="#181818"/>
<path d="M16 18.2V19.4C16 20.5045 16.8954 21.4 18 21.4V21.4C19.1046 21.4 20 20.5045 20 19.4V18.2" stroke="#181818"/>
<path d="M24 18.2V19.4C24 20.5046 23.1046 21.4 22 21.4V21.4C20.8954 21.4 20 20.5046 20 19.4V18.2V13" stroke="#181818"/>
</svg>
