<svg width="32" height="32" viewBox="0 0 32 32" fill="none" xmlns="http://www.w3.org/2000/svg">
<rect width="32" height="32" fill="#393939"/>
<g id="UI">
<path d="M-618 -69C-618 -179.457 -528.457 -269 -418 -269H1829C1939.46 -269 2029 -179.457 2029 -69V3246C2029 3356.46 1939.46 3446 1829 3446H-418C-528.457 3446 -618 3356.46 -618 3246V-69Z" fill="#181818"/>
<g id="card">
<rect x="-16" y="-118" width="360" height="166" rx="16" fill="#2CD997"/>
<g id="Icone-tag">
<g id="Frame 3854">
<g id="Icone-tag__icone">
<g id="vuesax/outline/arrow-circle-down">
<g id="arrow-circle-down">
<path id="Vector" d="M15.9998 30.3334C8.09317 30.3334 1.6665 23.9067 1.6665 16.0001C1.6665 8.09342 8.09317 1.66675 15.9998 1.66675C23.9065 1.66675 30.3332 8.09342 30.3332 16.0001C30.3332 23.9067 23.9065 30.3334 15.9998 30.3334ZM15.9998 3.66675C9.19984 3.66675 3.6665 9.20008 3.6665 16.0001C3.6665 22.8001 9.19984 28.3334 15.9998 28.3334C22.7998 28.3334 28.3332 22.8001 28.3332 16.0001C28.3332 9.20008 22.7998 3.66675 15.9998 3.66675Z" fill="black"/>
<path id="Vector_2" d="M16.0002 20.0134C15.7469 20.0134 15.4935 19.9201 15.2935 19.7201L10.5869 15.0134C10.2002 14.6267 10.2002 13.9867 10.5869 13.6001C10.9735 13.2134 11.6135 13.2134 12.0002 13.6001L16.0002 17.6001L20.0002 13.6001C20.3869 13.2134 21.0269 13.2134 21.4135 13.6001C21.8002 13.9867 21.8002 14.6267 21.4135 15.0134L16.7069 19.7201C16.5069 19.9201 16.2535 20.0134 16.0002 20.0134Z" fill="black"/>
</g>
</g>
</g>
</g>
</g>
<rect x="-17.5" y="-119.5" width="363" height="169" rx="17.5" stroke="black" stroke-opacity="0.95" stroke-width="3"/>
</g>
<path d="M-418 -268H1829V-270H-418V-268ZM2028 -69V3246H2030V-69H2028ZM1829 3445H-418V3447H1829V3445ZM-617 3246V-69H-619V3246H-617ZM-418 3445C-527.905 3445 -617 3355.9 -617 3246H-619C-619 3357.01 -529.009 3447 -418 3447V3445ZM2028 3246C2028 3355.9 1938.9 3445 1829 3445V3447C1940.01 3447 2030 3357.01 2030 3246H2028ZM1829 -268C1938.9 -268 2028 -178.905 2028 -69H2030C2030 -180.009 1940.01 -270 1829 -270V-268ZM-418 -270C-529.009 -270 -619 -180.009 -619 -69H-617C-617 -178.905 -527.905 -268 -418 -268V-270Z" fill="white" fill-opacity="0.1"/>
</g>
</svg>
