<svg width="40" height="40" viewBox="0 0 40 40" fill="none" xmlns="http://www.w3.org/2000/svg">
<path fill-rule="evenodd" clip-rule="evenodd" d="M28.8074 15.6236L28.185 14.5435C27.6584 13.6296 26.4914 13.3143 25.5763 13.8387V13.8387C25.1406 14.0953 24.6208 14.1682 24.1314 14.0411C23.6421 13.914 23.2233 13.5975 22.9676 13.1614C22.803 12.8841 22.7146 12.5684 22.7113 12.246V12.246C22.7261 11.7292 22.5311 11.2284 22.1708 10.8577C21.8104 10.4869 21.3153 10.2779 20.7982 10.2781H19.5442C19.0377 10.2781 18.552 10.4799 18.1947 10.8389C17.8374 11.198 17.6379 11.6846 17.6403 12.1911V12.1911C17.6253 13.2369 16.7732 14.0768 15.7273 14.0767C15.4049 14.0734 15.0892 13.9849 14.812 13.8204V13.8204C13.8968 13.296 12.7298 13.6113 12.2033 14.5252L11.5351 15.6236C11.0091 16.5364 11.3201 17.7026 12.2307 18.2323V18.2323C12.8226 18.574 13.1873 19.2056 13.1873 19.8891C13.1873 20.5725 12.8226 21.2041 12.2307 21.5458V21.5458C11.3213 22.0719 11.01 23.2353 11.5351 24.1454V24.1454L12.1667 25.2346C12.4134 25.6798 12.8273 26.0083 13.3169 26.1474C13.8065 26.2866 14.3314 26.2249 14.7754 25.976V25.976C15.2118 25.7213 15.7319 25.6516 16.2201 25.7822C16.7082 25.9128 17.124 26.233 17.3749 26.6717C17.5394 26.9489 17.6278 27.2646 17.6312 27.587V27.587C17.6312 28.6435 18.4877 29.5 19.5442 29.5H20.7982C21.8512 29.5001 22.7062 28.6491 22.7113 27.5962V27.5962C22.7088 27.088 22.9096 26.6 23.2689 26.2407C23.6282 25.8814 24.1162 25.6807 24.6243 25.6831C24.9459 25.6917 25.2604 25.7798 25.5397 25.9394V25.9394C26.4524 26.4653 27.6186 26.1544 28.1484 25.2438V25.2438L28.8074 24.1454C29.0625 23.7075 29.1325 23.186 29.0019 22.6964C28.8714 22.2067 28.551 21.7894 28.1117 21.5367V21.5367C27.6725 21.284 27.3521 20.8666 27.2215 20.3769C27.091 19.8873 27.161 19.3658 27.4161 18.928C27.582 18.6383 27.8221 18.3982 28.1117 18.2323V18.2323C29.0169 17.7029 29.3271 16.5435 28.8074 15.6328V15.6328V15.6236Z" stroke="#181818" stroke-linecap="round" stroke-linejoin="round"/>
<circle cx="20.1752" cy="19.8891" r="2.63616" stroke="#181818" stroke-linecap="round" stroke-linejoin="round"/>
</svg>
