<svg width="48" height="32" viewBox="0 0 48 32" fill="none" xmlns="http://www.w3.org/2000/svg">
<path d="M32.8825 8.36139C32.9447 8.29447 32.9758 8.23423 32.9758 8.18069C32.9758 8.14054 32.9633 8.10708 32.9384 8.08031C32.8887 8.02677 32.8141 8 32.7146 8C32.6027 8 32.4969 8.02008 32.3975 8.06023C32.3477 8.087 32.2917 8.11377 32.2296 8.14054C31.9062 8.28777 31.5393 8.46847 31.1289 8.68262C30.7807 8.87001 30.3765 9.10425 29.9164 9.38533C29.4562 9.66641 28.9525 10.001 28.4053 10.3892C27.8084 10.8309 27.1866 11.3127 26.5399 11.8347C25.8932 12.3568 25.2527 12.9189 24.6184 13.5212C23.9966 14.1102 23.3934 14.7326 22.8089 15.3884C22.2368 16.0443 21.7269 16.7135 21.2792 17.3961C21.2668 17.4497 21.2481 17.5032 21.2232 17.5567C21.1735 17.6906 21.1486 17.8111 21.1486 17.9181C21.1486 18.0386 21.1859 18.1524 21.2606 18.2595C21.3476 18.3665 21.5155 18.4201 21.7642 18.4201H21.9508C22.013 18.4067 22.0814 18.3933 22.156 18.3799C22.6534 18.2862 23.1633 18.1925 23.6857 18.0988C24.1334 18.0185 24.6246 17.9315 25.1594 17.8378C25.6942 17.7441 26.2165 17.6638 26.7264 17.5969C26.2538 18.3732 25.8185 19.1763 25.4206 20.0062C25.035 20.836 24.7428 21.6525 24.5438 22.4556C24.5438 22.4824 24.5376 22.5158 24.5251 22.556C24.5127 22.5961 24.5065 22.6697 24.5065 22.7768C24.5065 22.9107 24.5314 23.0311 24.5811 23.1382C24.6308 23.2587 24.7366 23.3189 24.8982 23.3189H24.9355C25.0226 23.3189 25.0972 23.2854 25.1594 23.2185C25.2216 23.1516 25.2838 23.0512 25.346 22.9174C25.4081 22.7969 25.4579 22.6095 25.4952 22.3552C25.5201 22.141 25.5885 21.8667 25.7004 21.532C25.7999 21.251 25.9367 20.903 26.1108 20.488C26.2849 20.0731 26.5212 19.5845 26.8197 19.0224C26.8819 18.9153 26.9503 18.7882 27.0249 18.6409C27.0871 18.5071 27.1679 18.3465 27.2674 18.1591C27.3793 17.9583 27.5099 17.7308 27.6591 17.4764C27.883 17.4497 28.0944 17.4296 28.2934 17.4162C28.5048 17.4028 28.7162 17.3961 28.9277 17.3961C29.251 17.3961 29.5371 17.4095 29.7858 17.4363C30.0345 17.4631 30.2459 17.4898 30.42 17.5166C30.619 17.5567 30.7931 17.6036 30.9424 17.6571C31.1538 17.7508 31.3093 17.7977 31.4088 17.7977C31.5082 17.7977 31.5642 17.7776 31.5766 17.7374C31.6015 17.6973 31.614 17.6571 31.614 17.617C31.6015 17.4697 31.5269 17.356 31.3901 17.2757C31.2657 17.182 31.1227 17.1084 30.961 17.0548C30.7745 17.0013 30.5693 16.9611 30.3454 16.9344C30.2459 16.921 30.1402 16.9143 30.0283 16.9143C29.9164 16.9009 29.7982 16.8942 29.6739 16.8942C29.1391 16.8942 28.5608 16.9344 27.939 17.0147C28.2996 16.4525 28.7473 15.7833 29.2821 15.0069C29.8169 14.2306 30.476 13.3472 31.2595 12.3568C31.3093 12.2898 31.3341 12.2296 31.3341 12.1761C31.3341 12.1359 31.3217 12.1024 31.2968 12.0757C31.2844 12.0623 31.2719 12.0556 31.2595 12.0556C31.2098 12.0288 31.1476 12.0154 31.073 12.0154C30.961 12.0154 30.8615 12.0489 30.7745 12.1158C30.7247 12.156 30.6874 12.1961 30.6626 12.2363C30.2895 12.6512 29.8977 13.1197 29.4873 13.6417C29.1391 14.0834 28.7473 14.6054 28.3121 15.2077C27.8892 15.7966 27.4602 16.4324 27.0249 17.1151C26.714 17.1552 26.3471 17.2087 25.9242 17.2757C25.5138 17.3426 25.1034 17.4162 24.693 17.4965C24.2951 17.5634 23.9282 17.6237 23.5924 17.6772C23.2691 17.7308 23.0328 17.7575 22.8835 17.7575C22.7218 17.7575 22.6224 17.7308 22.585 17.6772C22.5353 17.6371 22.5104 17.5768 22.5104 17.4965C22.5104 17.4296 22.5229 17.3694 22.5477 17.3158L22.585 17.2355C22.983 16.4994 23.468 15.7966 24.0401 15.1274C24.6122 14.4448 25.1718 13.8358 25.719 13.3004C26.3533 12.6713 27.0062 12.0891 27.6778 11.5537C28.4613 10.9112 29.1515 10.4026 29.7485 10.0278C30.3454 9.63964 30.8491 9.33179 31.2595 9.10425C31.7445 8.84993 32.1674 8.66255 32.528 8.54208C32.7146 8.48855 32.8327 8.42831 32.8825 8.36139Z" fill="black"/>
<path d="M39.8508 9.74672C39.9503 9.59948 40 9.51917 40 9.50579C40 9.45225 39.9627 9.42548 39.8881 9.42548C39.8135 9.42548 39.7699 9.43217 39.7575 9.44556L39.7202 9.48571C39.658 9.55264 39.5834 9.61956 39.4963 9.68649C39.4217 9.75341 39.3098 9.80695 39.1605 9.8471C38.9118 9.91403 38.6258 9.96087 38.3024 9.98764C37.9915 10.0144 37.6682 10.0278 37.3324 10.0278C37.009 10.0278 36.6857 10.0211 36.3623 10.0077C36.039 9.98095 35.7529 9.95418 35.5042 9.92741C35.2057 9.90064 34.9259 9.87387 34.6647 9.8471C34.6274 9.83372 34.5963 9.83372 34.5715 9.8471C34.559 9.86049 34.5404 9.87387 34.5155 9.88726C34.4906 9.90064 34.472 9.92072 34.4595 9.94749C34.2481 10.2687 34.0305 10.6033 33.8066 10.9513C33.6076 11.2458 33.3962 11.5537 33.1724 11.8749C32.9485 12.1961 32.7309 12.4906 32.5194 12.7583C32.3951 12.9457 32.2769 13.113 32.165 13.2602C32.0655 13.3941 31.9784 13.5279 31.9038 13.6618C31.8292 13.7822 31.7919 13.8759 31.7919 13.9429C31.7919 13.9696 31.8043 14.0098 31.8292 14.0633C31.8665 14.1169 31.966 14.1436 32.1277 14.1436C32.2023 14.1436 32.3515 14.1503 32.5754 14.1637C32.7993 14.1771 33.048 14.2172 33.3216 14.2842C33.6076 14.3377 33.9061 14.4247 34.217 14.5452C34.5279 14.6522 34.814 14.8129 35.0751 15.027C35.3363 15.2278 35.5477 15.4888 35.7094 15.81C35.8835 16.1179 35.9706 16.4994 35.9706 16.9544C35.9706 17.4898 35.8276 18.0854 35.5415 18.7413C35.2555 19.3972 34.8637 20.0129 34.3663 20.5884C33.8812 21.164 33.3029 21.6458 32.6314 22.034C31.9722 22.4221 31.2696 22.6162 30.5234 22.6162C30.4363 22.6162 30.312 22.6028 30.1503 22.5761C29.9886 22.5627 29.8145 22.5091 29.6279 22.4154C29.4538 22.3217 29.2797 22.1812 29.1056 21.9938C28.9439 21.8198 28.8134 21.5789 28.7139 21.271C28.7014 21.2443 28.6828 21.2108 28.6579 21.1706C28.6206 21.1037 28.5646 21.0703 28.49 21.0703C28.2288 21.0703 28.0983 21.3045 28.0983 21.773C28.0983 22.0942 28.2661 22.3954 28.6019 22.6764C28.9253 22.9709 29.4476 23.1181 30.1689 23.1181C30.8405 23.1181 31.568 22.9441 32.3515 22.5961C33.135 22.2615 33.8564 21.7997 34.5155 21.2108C35.1871 20.6219 35.7405 19.9259 36.1758 19.1228C36.6235 18.3197 36.8473 17.4564 36.8473 16.5328C36.8473 16.1313 36.7914 15.7833 36.6795 15.4888C36.58 15.1809 36.4432 14.9133 36.269 14.6857C36.0949 14.4448 35.896 14.244 35.6721 14.0834C35.4607 13.9228 35.2368 13.7889 35.0005 13.6818C34.4533 13.4275 33.8377 13.2669 33.1537 13.2C33.0542 13.1866 32.992 13.1665 32.9672 13.1398C32.9547 13.113 32.9485 13.0661 32.9485 12.9992C33.0729 12.7583 33.2097 12.5174 33.3589 12.2764C33.5206 12.0355 33.676 11.8214 33.8253 11.634C33.9994 11.4064 34.1735 11.1923 34.3476 10.9915C34.3849 10.9513 34.4222 10.9313 34.4595 10.9313C34.5093 10.9179 34.5528 10.9112 34.5901 10.9112C34.8388 10.9246 35.1249 10.938 35.4482 10.9513C35.7716 10.9647 36.0763 10.9714 36.3623 10.9714H37.407C37.8671 10.9313 38.2589 10.8376 38.5822 10.6903C38.9056 10.5297 39.173 10.3691 39.3844 10.2085C39.5958 10.0345 39.7513 9.88057 39.8508 9.74672Z" fill="black"/>
<path fill-rule="evenodd" clip-rule="evenodd" d="M15.9884 9.58911H12.7912L8 24H10.9512L11.8803 21.0296H16.8264L17.6826 24H20.725L15.9884 9.58911ZM16.043 18.5395H12.6273L14.3397 12.834H14.3761L16.043 18.5395Z" fill="black"/>
</svg>
