<svg width="103" height="48" viewBox="0 0 103 48" fill="none" xmlns="http://www.w3.org/2000/svg">
<rect x="0.5" y="0.5" width="102" height="47" rx="3.5" fill="#A259FF"/>
<path fill-rule="evenodd" clip-rule="evenodd" d="M64.8319 13.347C64.9252 13.2537 64.9719 13.1697 64.9719 13.095C64.9719 13.039 64.9532 12.9924 64.9159 12.955C64.8412 12.8804 64.7292 12.843 64.5799 12.843C64.4119 12.843 64.2532 12.871 64.1039 12.927C64.0292 12.9644 63.9452 13.0017 63.8519 13.039C63.3666 13.2444 62.8159 13.4964 62.1999 13.795C61.6772 14.0564 61.0706 14.383 60.3799 14.775C59.6892 15.167 58.9332 15.6337 58.1119 16.175C57.2159 16.791 56.2826 17.463 55.3119 18.191C54.3412 18.919 53.3799 19.703 52.4279 20.543C51.4946 21.3644 50.5892 22.2324 49.7119 23.147C48.8532 24.0617 48.0879 24.995 47.4159 25.947C47.3972 26.0217 47.3692 26.0964 47.3319 26.171C47.2572 26.3577 47.2199 26.5257 47.2199 26.675C47.2199 26.843 47.2759 27.0017 47.3879 27.151C47.5186 27.3004 47.7706 27.375 48.1439 27.375H48.4239C48.5172 27.3564 48.6199 27.3377 48.7319 27.319C49.4786 27.1884 50.2439 27.0577 51.0279 26.927C51.6999 26.815 52.4372 26.6937 53.2399 26.563C54.0426 26.4324 54.8266 26.3204 55.5919 26.227C54.8826 27.3097 54.2292 28.4297 53.6319 29.587C53.0532 30.7444 52.6146 31.883 52.3159 33.003C52.3159 33.0404 52.3066 33.087 52.2879 33.143C52.2692 33.199 52.2599 33.3017 52.2599 33.451C52.2599 33.6377 52.2972 33.8057 52.3719 33.955C52.4466 34.123 52.6052 34.207 52.8479 34.207H52.9039C53.0346 34.207 53.1466 34.1604 53.2399 34.067C53.3332 33.9737 53.4266 33.8337 53.5199 33.647C53.6132 33.479 53.6879 33.2177 53.7439 32.863C53.7812 32.5644 53.8839 32.1817 54.0519 31.715C54.2012 31.323 54.4066 30.8377 54.6679 30.259C54.9292 29.6804 55.2839 28.999 55.7319 28.215C55.8252 28.0657 55.9279 27.8884 56.0399 27.683C56.1332 27.4964 56.2546 27.2724 56.4039 27.011C56.5719 26.731 56.7679 26.4137 56.9919 26.059C57.3279 26.0217 57.6452 25.9937 57.9439 25.975C58.2612 25.9564 58.5786 25.947 58.8959 25.947C59.3812 25.947 59.8106 25.9657 60.1839 26.003C60.5572 26.0404 60.8746 26.0777 61.1359 26.115C61.4346 26.171 61.6959 26.2364 61.9199 26.311C62.2372 26.4417 62.4706 26.507 62.6199 26.507C62.7692 26.507 62.8532 26.479 62.8719 26.423C62.9092 26.367 62.9279 26.311 62.9279 26.255C62.9092 26.0497 62.7972 25.891 62.5919 25.779C62.4052 25.6484 62.1906 25.5457 61.9479 25.471C61.6679 25.3964 61.3599 25.3404 61.0239 25.303C60.8746 25.2844 60.7159 25.275 60.5479 25.275C60.3799 25.2564 60.2026 25.247 60.0159 25.247C59.2132 25.247 58.3452 25.303 57.4119 25.415C57.9532 24.631 58.6252 23.6977 59.4279 22.615C60.2306 21.5324 61.2199 20.3004 62.3959 18.919C62.4706 18.8257 62.5079 18.7417 62.5079 18.667C62.5079 18.611 62.4892 18.5644 62.4519 18.527C62.4332 18.5084 62.4146 18.499 62.3959 18.499C62.3212 18.4617 62.2279 18.443 62.1159 18.443C61.9479 18.443 61.7986 18.4897 61.6679 18.583C61.5932 18.639 61.5372 18.695 61.4999 18.751C60.9399 19.3297 60.3519 19.983 59.7359 20.711C59.2132 21.327 58.6252 22.055 57.9719 22.895C57.3372 23.7164 56.6932 24.603 56.0399 25.555C55.5732 25.611 55.0226 25.6857 54.3879 25.779C53.7719 25.8724 53.1559 25.975 52.5399 26.087C51.9426 26.1804 51.3919 26.2644 50.8879 26.339C50.4026 26.4137 50.0479 26.451 49.8239 26.451C49.5812 26.451 49.4319 26.4137 49.3759 26.339C49.3012 26.283 49.2639 26.199 49.2639 26.087C49.2639 25.9937 49.2826 25.9097 49.3199 25.835L49.3759 25.723C49.9732 24.6964 50.7012 23.7164 51.5599 22.783C52.4186 21.831 53.2586 20.9817 54.0799 20.235C55.0319 19.3577 56.0119 18.5457 57.0199 17.799C58.1959 16.903 59.2319 16.1937 60.1279 15.671C61.0239 15.1297 61.7799 14.7004 62.3959 14.383C63.1239 14.0284 63.7586 13.767 64.2999 13.599C64.5799 13.5244 64.7572 13.4404 64.8319 13.347ZM75.291 15.279C75.4403 15.0737 75.515 14.9617 75.515 14.943C75.515 14.8684 75.459 14.831 75.347 14.831C75.235 14.831 75.1697 14.8404 75.151 14.859L75.095 14.915C75.0017 15.0084 74.8897 15.1017 74.759 15.195C74.647 15.2884 74.479 15.363 74.255 15.419C73.8817 15.5124 73.4523 15.5777 72.967 15.615C72.5003 15.6524 72.015 15.671 71.511 15.671C71.0257 15.671 70.5403 15.6617 70.055 15.643C69.5697 15.6057 69.1403 15.5684 68.767 15.531C68.319 15.4937 67.899 15.4564 67.507 15.419C67.451 15.4004 67.4043 15.4004 67.367 15.419C67.3483 15.4377 67.3203 15.4564 67.283 15.475C67.2457 15.4937 67.2177 15.5217 67.199 15.559C66.8817 16.007 66.555 16.4737 66.219 16.959C65.9203 17.3697 65.603 17.799 65.267 18.247C64.931 18.695 64.6043 19.1057 64.287 19.479C64.1003 19.7404 63.923 19.9737 63.755 20.179C63.6057 20.3657 63.475 20.5524 63.363 20.739C63.251 20.907 63.195 21.0377 63.195 21.131C63.195 21.1684 63.2136 21.2244 63.251 21.299C63.307 21.3737 63.4563 21.411 63.699 21.411C63.811 21.411 64.035 21.4204 64.371 21.439C64.707 21.4577 65.0803 21.5137 65.491 21.607C65.9203 21.6817 66.3683 21.803 66.835 21.971C67.3017 22.1204 67.731 22.3444 68.123 22.643C68.515 22.923 68.8323 23.287 69.075 23.735C69.3363 24.1644 69.467 24.6964 69.467 25.331C69.467 26.0777 69.2523 26.9084 68.823 27.823C68.3937 28.7377 67.8057 29.5964 67.059 30.399C66.331 31.2017 65.463 31.8737 64.455 32.415C63.4657 32.9564 62.411 33.227 61.291 33.227C61.1603 33.227 60.9737 33.2084 60.731 33.171C60.4883 33.1524 60.227 33.0777 59.947 32.947C59.6856 32.8164 59.4243 32.6204 59.163 32.359C58.9203 32.1164 58.7243 31.7804 58.575 31.351C58.5563 31.3137 58.5283 31.267 58.491 31.211C58.435 31.1177 58.351 31.071 58.239 31.071C57.847 31.071 57.651 31.3977 57.651 32.051C57.651 32.499 57.903 32.919 58.407 33.311C58.8923 33.7217 59.6763 33.927 60.759 33.927C61.767 33.927 62.859 33.6844 64.035 33.199C65.211 32.7324 66.2937 32.0884 67.283 31.267C68.291 30.4457 69.1217 29.475 69.775 28.355C70.447 27.235 70.783 26.031 70.783 24.743C70.783 24.183 70.699 23.6977 70.531 23.287C70.3817 22.8577 70.1763 22.4844 69.915 22.167C69.6537 21.831 69.355 21.551 69.019 21.327C68.7017 21.103 68.3657 20.9164 68.011 20.767C67.1897 20.4124 66.2657 20.1884 65.239 20.095C65.0897 20.0764 64.9963 20.0484 64.959 20.011C64.9403 19.9737 64.931 19.9084 64.931 19.815C65.1177 19.479 65.323 19.143 65.547 18.807C65.7896 18.471 66.023 18.1724 66.247 17.911C66.5083 17.5937 66.7697 17.295 67.031 17.015C67.087 16.959 67.143 16.931 67.199 16.931C67.2737 16.9124 67.339 16.903 67.395 16.903C67.7683 16.9217 68.1977 16.9404 68.683 16.959C69.1683 16.9777 69.6257 16.987 70.055 16.987H71.623C72.3137 16.931 72.9017 16.8004 73.387 16.595C73.8723 16.371 74.2737 16.147 74.591 15.923C74.9083 15.6804 75.1417 15.4657 75.291 15.279ZM39.4746 15.0592H34.6758L27.4844 35.1569H31.9141L33.3086 31.0143H40.7324L42.0176 35.1569H46.584L39.4746 15.0592ZM39.5566 27.5416H34.4297L37 19.5846H37.0547L39.5566 27.5416Z" fill="#F5F5F5"/>
<rect x="0.5" y="0.5" width="102" height="47" rx="3.5" stroke="#F5F5F5"/>
</svg>
