<svg width="66" height="34" viewBox="0 0 66 34" fill="none" xmlns="http://www.w3.org/2000/svg">
<rect x="0.5" y="0.5" width="65" height="33" rx="4.5" fill="#E7375E"/>
<path d="M41.8825 9.36139C41.9447 9.29447 41.9758 9.23423 41.9758 9.18069C41.9758 9.14054 41.9633 9.10708 41.9384 9.08031C41.8887 9.02677 41.8141 9 41.7146 9C41.6027 9 41.4969 9.02008 41.3975 9.06023C41.3477 9.087 41.2917 9.11377 41.2296 9.14054C40.9062 9.28777 40.5393 9.46847 40.1289 9.68262C39.7807 9.87001 39.3765 10.1042 38.9164 10.3853C38.4562 10.6664 37.9525 11.001 37.4053 11.3892C36.8084 11.8309 36.1866 12.3127 35.5399 12.8347C34.8932 13.3568 34.2527 13.9189 33.6184 14.5212C32.9966 15.1102 32.3934 15.7326 31.8089 16.3884C31.2368 17.0443 30.7269 17.7135 30.2792 18.3961C30.2668 18.4497 30.2481 18.5032 30.2232 18.5568C30.1735 18.6906 30.1486 18.8111 30.1486 18.9181C30.1486 19.0386 30.1859 19.1524 30.2606 19.2595C30.3476 19.3665 30.5155 19.4201 30.7642 19.4201H30.9508C31.013 19.4067 31.0814 19.3933 31.156 19.3799C31.6534 19.2862 32.1633 19.1925 32.6857 19.0988C33.1334 19.0185 33.6246 18.9315 34.1594 18.8378C34.6942 18.7441 35.2165 18.6638 35.7264 18.5969C35.2538 19.3732 34.8185 20.1763 34.4206 21.0062C34.035 21.836 33.7428 22.6525 33.5438 23.4556C33.5438 23.4824 33.5376 23.5158 33.5251 23.556C33.5127 23.5961 33.5065 23.6697 33.5065 23.7768C33.5065 23.9107 33.5314 24.0311 33.5811 24.1382C33.6308 24.2587 33.7366 24.3189 33.8982 24.3189H33.9355C34.0226 24.3189 34.0972 24.2854 34.1594 24.2185C34.2216 24.1516 34.2838 24.0512 34.346 23.9174C34.4081 23.7969 34.4579 23.6095 34.4952 23.3552C34.5201 23.141 34.5885 22.8667 34.7004 22.532C34.7999 22.251 34.9367 21.903 35.1108 21.488C35.2849 21.0731 35.5212 20.5845 35.8197 20.0224C35.8819 19.9153 35.9503 19.7882 36.0249 19.6409C36.0871 19.5071 36.1679 19.3465 36.2674 19.1591C36.3793 18.9583 36.5099 18.7308 36.6591 18.4764C36.883 18.4497 37.0944 18.4296 37.2934 18.4162C37.5048 18.4028 37.7162 18.3961 37.9277 18.3961C38.251 18.3961 38.5371 18.4095 38.7858 18.4363C39.0345 18.4631 39.2459 18.4898 39.42 18.5166C39.619 18.5568 39.7931 18.6036 39.9424 18.6571C40.1538 18.7508 40.3093 18.7977 40.4088 18.7977C40.5082 18.7977 40.5642 18.7776 40.5766 18.7374C40.6015 18.6973 40.614 18.6571 40.614 18.617C40.6015 18.4698 40.5269 18.356 40.3901 18.2757C40.2657 18.182 40.1227 18.1084 39.961 18.0548C39.7745 18.0013 39.5693 17.9611 39.3454 17.9344C39.2459 17.921 39.1402 17.9143 39.0283 17.9143C38.9164 17.9009 38.7982 17.8942 38.6739 17.8942C38.1391 17.8942 37.5608 17.9344 36.939 18.0147C37.2996 17.4525 37.7473 16.7833 38.2821 16.0069C38.8169 15.2306 39.476 14.3472 40.2595 13.3568C40.3093 13.2898 40.3341 13.2296 40.3341 13.1761C40.3341 13.1359 40.3217 13.1024 40.2968 13.0757C40.2844 13.0623 40.2719 13.0556 40.2595 13.0556C40.2098 13.0288 40.1476 13.0154 40.073 13.0154C39.961 13.0154 39.8615 13.0489 39.7745 13.1158C39.7247 13.156 39.6874 13.1961 39.6626 13.2363C39.2895 13.6512 38.8977 14.1197 38.4873 14.6417C38.1391 15.0834 37.7473 15.6054 37.3121 16.2077C36.8892 16.7966 36.4602 17.4324 36.0249 18.1151C35.714 18.1552 35.3471 18.2087 34.9242 18.2757C34.5138 18.3426 34.1034 18.4162 33.693 18.4965C33.2951 18.5634 32.9282 18.6237 32.5924 18.6772C32.2691 18.7308 32.0328 18.7575 31.8835 18.7575C31.7218 18.7575 31.6224 18.7308 31.585 18.6772C31.5353 18.6371 31.5104 18.5768 31.5104 18.4965C31.5104 18.4296 31.5229 18.3694 31.5477 18.3158L31.585 18.2355C31.983 17.4994 32.468 16.7966 33.0401 16.1274C33.6122 15.4448 34.1718 14.8358 34.719 14.3004C35.3533 13.6713 36.0062 13.0891 36.6778 12.5537C37.4613 11.9112 38.1515 11.4026 38.7485 11.0278C39.3454 10.6396 39.8491 10.3318 40.2595 10.1042C40.7445 9.84993 41.1674 9.66255 41.528 9.54208C41.7146 9.48855 41.8327 9.42831 41.8825 9.36139Z" fill="white"/>
<path d="M48.8508 10.7467C48.9503 10.5995 49 10.5192 49 10.5058C49 10.4523 48.9627 10.4255 48.8881 10.4255C48.8135 10.4255 48.7699 10.4322 48.7575 10.4456L48.7202 10.4857C48.658 10.5526 48.5834 10.6196 48.4963 10.6865C48.4217 10.7534 48.3098 10.8069 48.1605 10.8471C47.9118 10.914 47.6258 10.9609 47.3024 10.9876C46.9915 11.0144 46.6682 11.0278 46.3324 11.0278C46.009 11.0278 45.6857 11.0211 45.3623 11.0077C45.039 10.981 44.7529 10.9542 44.5042 10.9274C44.2057 10.9006 43.9259 10.8739 43.6647 10.8471C43.6274 10.8337 43.5963 10.8337 43.5715 10.8471C43.559 10.8605 43.5404 10.8739 43.5155 10.8873C43.4906 10.9006 43.472 10.9207 43.4595 10.9475C43.2481 11.2687 43.0305 11.6033 42.8066 11.9513C42.6076 12.2458 42.3962 12.5537 42.1724 12.8749C41.9485 13.1961 41.7309 13.4906 41.5194 13.7583C41.3951 13.9457 41.2769 14.113 41.165 14.2602C41.0655 14.3941 40.9784 14.5279 40.9038 14.6618C40.8292 14.7822 40.7919 14.8759 40.7919 14.9429C40.7919 14.9696 40.8043 15.0098 40.8292 15.0633C40.8665 15.1169 40.966 15.1436 41.1277 15.1436C41.2023 15.1436 41.3515 15.1503 41.5754 15.1637C41.7993 15.1771 42.048 15.2172 42.3216 15.2842C42.6076 15.3377 42.9061 15.4247 43.217 15.5452C43.5279 15.6522 43.814 15.8129 44.0751 16.027C44.3363 16.2278 44.5477 16.4888 44.7094 16.81C44.8835 17.1179 44.9706 17.4994 44.9706 17.9544C44.9706 18.4898 44.8276 19.0855 44.5415 19.7413C44.2555 20.3972 43.8637 21.0129 43.3663 21.5884C42.8812 22.164 42.3029 22.6458 41.6314 23.034C40.9722 23.4221 40.2696 23.6162 39.5234 23.6162C39.4363 23.6162 39.312 23.6028 39.1503 23.5761C38.9886 23.5627 38.8145 23.5091 38.6279 23.4154C38.4538 23.3217 38.2797 23.1812 38.1056 22.9938C37.9439 22.8198 37.8134 22.5789 37.7139 22.271C37.7014 22.2443 37.6828 22.2108 37.6579 22.1706C37.6206 22.1037 37.5646 22.0703 37.49 22.0703C37.2288 22.0703 37.0983 22.3045 37.0983 22.773C37.0983 23.0942 37.2662 23.3954 37.6019 23.6764C37.9253 23.9709 38.4476 24.1181 39.1689 24.1181C39.8405 24.1181 40.568 23.9441 41.3515 23.5961C42.135 23.2615 42.8564 22.7997 43.5155 22.2108C44.1871 21.6219 44.7405 20.9259 45.1758 20.1228C45.6235 19.3197 45.8473 18.4564 45.8473 17.5328C45.8473 17.1313 45.7914 16.7833 45.6795 16.4888C45.58 16.1809 45.4432 15.9133 45.269 15.6857C45.0949 15.4448 44.896 15.244 44.6721 15.0834C44.4607 14.9228 44.2368 14.7889 44.0005 14.6818C43.4533 14.4275 42.8377 14.2669 42.1537 14.2C42.0542 14.1866 41.992 14.1665 41.9672 14.1398C41.9547 14.113 41.9485 14.0661 41.9485 13.9992C42.0729 13.7583 42.2097 13.5174 42.3589 13.2764C42.5206 13.0355 42.676 12.8214 42.8253 12.634C42.9994 12.4064 43.1735 12.1923 43.3476 11.9915C43.3849 11.9513 43.4222 11.9313 43.4595 11.9313C43.5093 11.9179 43.5528 11.9112 43.5901 11.9112C43.8388 11.9246 44.1249 11.938 44.4482 11.9513C44.7716 11.9647 45.0763 11.9714 45.3623 11.9714H46.407C46.8671 11.9313 47.2589 11.8376 47.5822 11.6903C47.9056 11.5297 48.173 11.3691 48.3844 11.2085C48.5958 11.0345 48.7513 10.8806 48.8508 10.7467Z" fill="white"/>
<path fill-rule="evenodd" clip-rule="evenodd" d="M24.9884 10.5891H21.7912L17 25H19.9512L20.8803 22.0296H25.8264L26.6826 25H29.725L24.9884 10.5891ZM25.043 19.5395H21.6273L23.3397 13.834H23.3761L25.043 19.5395Z" fill="white"/>
<rect x="0.5" y="0.5" width="65" height="33" rx="4.5" stroke="white"/>
</svg>
